<svg xmlns="http://www.w3.org/2000/svg" width="1280" height="800" viewBox="0 0 1280 800">
<rect width="100%" height="100%" fill="rgb(245,246,248)"/>
<rect x="0" y="0" width="1280" height="70" fill="rgb(235,236,238)"/>
<rect x="0" y="0" width="1280" height="30" fill="rgb(220,222,225)"/>
<rect x="90" y="6" width="280" height="22" rx="6" fill="rgb(245,245,247)" stroke="rgb(200,200,205)"/>
<rect x="140" y="38" width="820" height="24" rx="10" fill="white" stroke="rgb(200,200,205)"/>
<text x="160" y="55" font-size="14" fill="rgb(90,90,95)" font-family="-apple-system,Helvetica,Arial">https://example.com/article</text>
<circle cx="17" cy="13" r="5" fill="rgb(255,95,86)"/>
<circle cx="33" cy="13" r="5" fill="rgb(255,189,46)"/>
<circle cx="49" cy="13" r="5" fill="rgb(39,201,63)"/>
<rect x="0" y="70" width="1280" height="80" fill="rgb(20,20,20)"/>
<text x="80" y="120" font-size="28" fill="rgb(245,245,245)" font-family="Georgia,serif">The Daily Ledger</text>
<text x="80" y="205" font-size="34" fill="rgb(15,15,15)" font-family="Georgia,serif">City Council Approves New Riverwalk Plan</text>
<text x="80" y="235" font-size="14" fill="rgb(80,80,80)" font-family="-apple-system,Helvetica,Arial">Local · Feb 11, 2026</text>
<text x="80" y="270" font-size="18" fill="rgb(45,45,45)" font-family="-apple-system,Helvetica,Arial">The plan includes new bike lanes, public seating, and u</text>
<text x="80" y="296" font-size="18" fill="rgb(45,45,45)" font-family="-apple-system,Helvetica,Arial">pgraded lighting along the east bank. Officials expect </text>
<text x="80" y="322" font-size="18" fill="rgb(45,45,45)" font-family="-apple-system,Helvetica,Arial">construction to begin in early spring, with phase one f</text>
<text x="80" y="348" font-size="18" fill="rgb(45,45,45)" font-family="-apple-system,Helvetica,Arial">inishing by fall.</text>
<text x="680" y="270" font-size="18" fill="rgb(45,45,45)" font-family="-apple-system,Helvetica,Arial">Residents voiced support for better access to the river</text>
<text x="680" y="296" font-size="18" fill="rgb(45,45,45)" font-family="-apple-system,Helvetica,Arial">, though some raised concerns about parking. A public f</text>
<text x="680" y="322" font-size="18" fill="rgb(45,45,45)" font-family="-apple-system,Helvetica,Arial">eedback session is scheduled for next week.</text>
<rect x="80" y="420" width="540" height="160" fill="rgb(225,230,235)"/>
<text x="100" y="505" font-size="18" fill="rgb(120,120,120)" font-family="-apple-system,Helvetica,Arial">Photo</text>
<rect x="0" y="70" width="1280" height="290" fill="rgba(0,0,0,0.6)"/>
<rect x="0" y="440" width="1280" height="360" fill="rgba(0,0,0,0.6)"/>
<rect x="850" y="710" width="400" height="50" rx="10" fill="rgb(25,25,25)" stroke="rgb(60,60,60)"/>
<text x="862" y="740" font-size="12" fill="rgb(220,220,220)" font-family="-apple-system,Helvetica,Arial">Reader Focus</text>
<rect x="970" y="720" width="80" height="30" rx="7" fill="rgb(45,45,45)" stroke="rgb(70,70,70)"/>
<text x="980" y="740" font-size="12" fill="rgb(235,235,235)" font-family="-apple-system,Helvetica,Arial">Spotlight</text>
<rect x="1058" y="720" width="80" height="30" rx="7" fill="rgb(45,45,45)" stroke="rgb(70,70,70)"/>
<text x="1068" y="740" font-size="12" fill="rgb(235,235,235)" font-family="-apple-system,Helvetica,Arial">Shades</text>
<rect x="1146" y="720" width="70" height="30" rx="7" fill="rgb(45,45,45)" stroke="rgb(70,70,70)"/>
<text x="1156" y="740" font-size="12" fill="rgb(235,235,235)" font-family="-apple-system,Helvetica,Arial">Size -</text>
<rect x="1224" y="720" width="70" height="30" rx="7" fill="rgb(45,45,45)" stroke="rgb(70,70,70)"/>
<text x="1234" y="740" font-size="12" fill="rgb(235,235,235)" font-family="-apple-system,Helvetica,Arial">Size +</text>
<rect x="1302" y="720" width="80" height="30" rx="7" fill="rgb(45,45,45)" stroke="rgb(70,70,70)"/>
<text x="1312" y="740" font-size="12" fill="rgb(235,235,235)" font-family="-apple-system,Helvetica,Arial">Hide</text>
</svg>